<svg enable-background="new 0 0 325.8 86" viewBox="0 0 325.8 86" xmlns="http://www.w3.org/2000/svg" xmlns:xlink="http://www.w3.org/1999/xlink"><clipPath id="a"><path d="m0 0h325.8v86h-325.8z"/></clipPath><g clip-path="url(#a)"><path d="m97.9 5.2h6.4c3.7 0 5.5 2 5.5 6v16.6c0 4-1.9 6-5.8 6h-6.1zm4.1 4v20.5h1.8c1.2 0 1.8-.6 1.8-1.9v-16.6c0-1.3-.6-2-1.8-2z"/><path d="m113.3 5.2h4.1v28.6h-4.1z"/><path d="m121 10.7c0-4 2-6 5.9-6 4 0 5.9 2 5.9 6v3.8h-4.1v-3.8c0-1.3-.6-1.9-1.8-1.9-1.2 0-1.8.6-1.8 1.9v2.6c0 1.3 1.3 2.8 3.9 4.7 2.6 1.8 3.9 4 3.9 6.6v3.6c0 4-2 6-5.9 6-4 0-5.9-2-5.9-6v-3.8h4.1v3.8c0 1.3.6 1.9 1.8 1.9s1.8-.6 1.8-1.9v-3.3c0-1.4-1.3-3-3.9-4.8s-3.9-4.1-3.9-6.7z"/><path d="m147 5.2v4.1h-3.9v24.5h-4.1v-24.6h-3.9v-4z"/><path d="m160.4 23.6 1.3 10.1h-4.2l-.8-6.1h-4.2l-.8 6.1h-4.2l1.3-10.1 2.9-18.5h5.7zm-4.2 0-1.6-11.9-1.6 11.9z"/><path d="m164.2 5.2h4.1l3.9 16.6v-16.6h3.8v28.6h-4.1l-3.8-16.1v16.1h-4v-28.6z"/><path d="m191.4 28.2c0 4-2 6-5.9 6s-5.9-2-5.9-6v-17.5c0-4 2-6 5.9-6 4 0 5.9 2 5.9 6v3.8h-4.1v-3.8c0-1.3-.6-1.9-1.8-1.9-1.2 0-1.8.6-1.8 1.9v17.5c0 1.3.6 1.9 1.8 1.9s1.8-.6 1.8-1.9v-3.8h4.1z"/><path d="m194.8 5.2h10.7v4.1h-6.6v8.2h5.7v4.1h-5.7v8.2h6.6v4.1h-10.7z"/><path d="m215.9 33.8v-28.6h4.1v24.5h6.6v4.1z"/><path d="m229.1 5.2h10.7v4.1h-6.6v8.2h5.7v4.1h-5.7v8.2h6.6v4.1h-10.7z"/><path d="m254.4 23.6 1.3 10.1h-4.2l-.8-6.1h-4.2l-.8 6.1h-4.2l1.3-10.1 2.9-18.5h5.7zm-4.2 0-1.6-11.9-1.6 11.9z"/><path d="m258.2 5.2h6c3.7 0 5.5 2 5.5 6v4.3c0 2.5-1.1 4.2-3.3 5l4.6 13.3h-4.5l-3.7-12.6-.5.1v12.5h-4.1zm4.1 4v8.2h.9c.4 0 .8 0 1.2-.1.7-.3 1.2-1 1.1-1.8v-4.3c0-1.3-.6-2-1.8-2z"/><path d="m273.4 5.2h4.1l3.9 16.6v-16.6h3.8v28.6h-4.1l-3.8-16.1v16.1h-4z"/><path d="m289.1 5.2h4.1v28.6h-4.1z"/><path d="m297.1 5.2h4.1l3.9 16.6v-16.6h3.8v28.6h-4.1l-3.8-16.1v16.1h-4z"/><path d="m324.3 28.2c0 4-2 6-5.9 6s-5.9-2-5.9-6v-17.5c0-4 2-6 5.9-6 4 0 5.9 2 5.9 6v3.8h-4.1v-3.8c0-1.3-.6-1.9-1.8-1.9-1.2 0-1.8.6-1.8 1.9v17.5c0 1.3.6 1.9 1.8 1.9s1.8-.6 1.8-1.9v-6.7h-2.1v-4.1h6.2z"/><path d="m109.6 60.1 1.4 10.3h-4.2l-.8-6.2h-4.3l-.8 6.2h-4.2l1.4-10.3 3-18.8h5.8zm-4.3 0-1.6-12.1-1.6 12.1z"/><path d="m115.9 41.3h6.5c3.7 0 5.6 2 5.6 6.1v16.8c0 4.1-2 6.1-5.9 6.1h-6.2zm4.2 4.2v20.8h1.8c1.2 0 1.8-.7 1.8-2v-16.8c0-1.3-.6-2-1.8-2z"/><path d="m143.1 61.3 4.9-19.9h4.2v29.1h-4v-16.4l-3.6 16.3h-2.8l-3.8-16.3v16.3h-4.1v-29.1h4.2z"/><path d="m158.5 41.3h4.2v29.1h-4.2z"/><path d="m169 41.3h4.2l4 16.9v-16.9h3.9v29.1h-4.2l-3.8-16.3v16.3h-4v-29.1z"/><path d="m187.4 41.3h4.2v29.1h-4.2z"/><path d="m197.7 47c0-4.1 2-6.1 6-6.1s6 2 6 6.1v3.9h-4.2v-3.9c0-1.3-.6-2-1.8-2-1.2 0-1.8.7-1.8 2v2.6c0 1.3 1.3 2.9 3.9 4.8s3.9 4.1 3.9 6.7v3.7c0 4.1-2 6.1-6 6.1s-6-2-6-6.1v-3.9h4.2v3.9c0 1.3.6 2 1.8 2s1.8-.7 1.8-2v-3.3c0-1.4-1.3-3-3.9-4.9s-3.9-4.1-3.9-6.8z"/><path d="m226.6 41.3v4.1h-3.9v24.9h-4.2v-24.8h-3.9v-4.1z"/><path d="m231.7 41.3h6.1c3.7 0 5.6 2 5.6 6.1v4.4c0 2.6-1.1 4.2-3.3 5.1l4.7 13.5h-4.6l-3.8-12.8-.5.1v12.7h-4.2zm4.2 4.2v8.3h1c.4 0 .8 0 1.2-.1.8-.3 1.2-1 1.1-1.9v-4.4c0-1.3-.6-2-1.8-2h-1.5z"/><path d="m261.3 60.1 1.4 10.3h-4.2l-.8-6.2h-4.3l-.8 6.2h-4.2l1.4-10.3 3-18.8h5.8zm-4.2 0-1.7-12.1-1.6 12.1z"/><path d="m278 41.3v4.1h-3.9v24.9h-4.2v-24.8h-3.9v-4.1z"/><path d="m283.2 41.3h4.2v29.1h-4.2z"/><path d="m305.5 64.8c0 4.1-2 6.1-6 6.1s-6-2-6-6.1v-17.8c0-4.1 2-6.1 6-6.1s6 2 6 6.1zm-4.2-17.8c0-1.3-.6-2-1.8-2-1.2 0-1.8.7-1.8 2v17.8c0 1.3.6 2 1.8 2s1.8-.7 1.8-2z"/><path d="m311.5 41.3h4.2l4 16.9v-16.8h3.9v29.1h-4.2l-3.8-16.3v16.3h-4z"/><path d="m83.1 27.1v-26.6c-6.7 9.5-21.7 10.7-29.3.2-.5-.8-1.5-1-2.3-.5-.5.4-.8 1-.7 1.6l.1.5c2.3 15-14 26-27 18.1-.8-.4-1.9-.2-2.5.6-.4.6-.4 1.3 0 1.9 8 13-2.8 29.5-17.9 27.2-.9-.2-1.8.4-2 1.3-.1.7.1 1.4.7 1.8l2.5 1.8c11.1 8 8.2 25.1-4.6 29.1h29.3c1.2-29.7 24.1-54 53.7-57" fill="#f7c30f"/><path d="m83.1 33.4c-26.1 3-46.1 24.5-47.2 50.7h47.2z" fill="#f7c30f"/><path d="m157.2 83.4h1v.7c0 .3 0 .6.4.6s.4-.3.4-.7v-5.5h1.1v5.6c0 .8-.4 1.3-1.5 1.3-.9 0-1.4-.2-1.4-1.2z"/><path d="m162.3 78.6h2.9v.8h-1.8v2.2h1.7v.8h-1.7v2.3h1.8v.8h-2.9z"/><path d="m167.1 78.6h1.1v3.1l1.7-3.1h1.1l-1.8 3.2 1.9 3.7h-1.2l-1.7-3.4v3.4h-1.1z"/><path d="m172.7 78.6h1.1l.9 2.9 1.1-2.9h.9l-1.5 4.1v2.8h-1.1v-2.8z"/><path d="m178.7 78.6h1.1v6.1h1.8v.8h-2.8v-6.9z"/><path d="m183.6 78.6h1.1v6.1h1.8v.8h-2.8v-6.9z"/><path d="m191.8 78.6h1.1v6.9h-1.1z"/><path d="m195 83.5h1.1v.5c0 .5.2.7.6.7.6 0 .7-.3.7-.8 0-.6 0-.8-1.1-1.8-.7-.5-1.2-1.2-1.2-2.1 0-1.1.6-1.6 1.7-1.6.4 0 .9.1 1.2.4.2.2.3.6.3.9v.7h-1v-.5c0-.4-.2-.6-.6-.6s-.6.2-.6.8c0 .5.1.8 1.1 1.7 1 1 1.2 1.3 1.2 2.1 0 1.1-.5 1.7-1.7 1.7-1 0-1.6-.4-1.6-1.2z"/><path d="m200.5 78.6h1.1v6.1h1.8v.8h-2.8z"/><path d="m206.7 78.6h1.2l1.6 6.9h-1.1l-.3-1.8h-1.7l-.3 1.8h-1.1zm-.1 4.3h1.3l-.7-3.3z"/><path d="m211.5 78.6h1.5l1.3 5.7v-5.7h1v6.9h-1.5l-1.3-5.9v5.9h-.9v-6.9z"/><path d="m217.5 78.6h1.7c1.7 0 1.9.5 1.9 2.5v2.1c0 1.8-.3 2.3-2 2.3h-1.5v-6.9zm1.1 6.1h.5c.8 0 .9-.4.9-1.6v-2.4c0-1-.1-1.4-1-1.4h-.4z"/><path d="m223.3 84.3h1.1l-.6 1.7h-.8z"/><path d="m232 80.4v-.4c0-.5-.3-.8-.7-.8-.5 0-.7.4-.7 1.1v3.5c0 .6.3.9.7.9.2 0 .5 0 .7-.1v-2h-.7v-.8h1.8v3.5c-.6.1-1.2.2-1.7.2-1.3 0-1.8-.6-1.8-1.7v-3.5c0-1.3.4-1.8 1.8-1.8 1.1 0 1.7.4 1.7 1.3v.6z"/><path d="m235.3 78.6h2.9v.8h-1.8v2.2h1.7v.8h-1.7v2.3h1.8v.8h-2.9z"/><path d="m240.1 80.3c-.1-.9.5-1.7 1.3-1.8h.5c1.4 0 1.8.6 1.8 1.7v3.5c.1.9-.5 1.7-1.3 1.8-.2 0-.3 0-.5 0-1.4 0-1.8-.6-1.8-1.7zm1 3.6c0 .6.3.9.7.9s.7-.3.7-.9v-3.6c0-.7-.3-1-.7-1-.5 0-.7.3-.7 1z"/><path d="m245.9 78.6h1.6c1.5 0 1.7.4 1.7 1.9 0 .9-.1 1.3-1 1.6.5 0 .9.3 1 .8v.2 1.5c0 .3 0 .6.1.9h-1c-.1-.2-.1-.4-.1-.6v-1.6c0-.6-.1-.8-.8-.8h-.4v3h-1.1zm1.1 3.1h.3c.8 0 1-.1 1-1.2 0-1-.1-1.1-.7-1.1h-.6z"/><path d="m254 80.4v-.4c0-.5-.3-.8-.7-.8-.5 0-.7.4-.7 1.1v3.5c0 .6.3.9.7.9.2 0 .5 0 .7-.1v-2h-.7v-.8h1.8v3.5c-.6.1-1.2.2-1.7.2-1.3 0-1.8-.6-1.8-1.7v-3.5c0-1.3.4-1.8 1.8-1.8 1.1 0 1.7.4 1.7 1.3v.6z"/><path d="m257.3 78.6h1.1v6.9h-1.1z"/><path d="m262 78.6h1.2l1.6 6.9h-1.1l-.3-1.8h-1.7l-.3 1.8h-1.1zm-.1 4.3h1.3l-.7-3.3z"/><path d="m150.2 83.2h-53.5c-.5 0-1-.4-1-1s.4-1 1-1h53.4c.5 0 1 .4 1 1s-.4 1-.9 1"/><path d="m324.9 83.2h-53.4c-.5 0-1-.4-1-1s.4-1 1-1h53.4c.5 0 1 .4 1 1s-.5 1-1 1"/></g></svg>