<svg enable-background="new 0 0 154.6 58.7" viewBox="0 0 154.6 58.7" xmlns="http://www.w3.org/2000/svg"><g transform="translate(-.1 -.038)"><g fill="#fff"><path d="m73.4 8.9v43.4h5.2c3.4 0 5.1-1.6 5.1-4.8v-33.8c0-3.2-1.7-4.8-5.1-4.8zm-7.5-6.5h13.7c7.8 0 11.7 3.8 11.7 11.4v33.7c0 7.5-4.1 11.3-12.3 11.3h-13z"/><path d="m99 58.7v-56.3h7.5v49.9h15.2v6.5z"/><path d="m144.2 39.9-4.8-31.9-4.7 31.8h9.5zm7.5-.8 3 19.6h-7.6l-1.8-12.3h-11.5l-1.9 12.3h-7.6l2.9-19.5 6.6-36.8h11.4z"/></g><g fill="#f7c413" transform="translate(.1 .038)"><path d="m57.8 18.8v-18.5c-4 5.7-11.9 7-17.6 3-1.1-.8-2-1.7-2.8-2.8-.4-.5-1.1-.7-1.6-.3-.4.3-.6.7-.5 1.1v.4c1 6.8-3.6 13.2-10.4 14.2-2.9.4-5.9-.1-8.4-1.7-.6-.4-1.3-.2-1.7.3-.3.4-.3.9 0 1.3 3.6 5.8 1.9 13.5-4 17.2-2.5 1.6-5.5 2.2-8.5 1.7-.7-.1-1.3.3-1.4 1-.1.5.1 1 .5 1.2l1.7 1.2c5.2 3.7 6.3 10.9 2.6 16.1-1.4 2-3.5 3.5-5.8 4.2h20.4c1-20.6 16.9-37.5 37.5-39.6"/><path d="m57.8 23.2c-18.1 2.1-32.1 17-32.9 35.3h32.9z"/></g></g></svg>