<svg width="11" height="9" viewBox="0 0 11 9" fill="none" xmlns="http://www.w3.org/2000/svg">
<path d="M9.9375 7.6875H0.539062C0.234375 7.6875 0 7.94531 0 8.25C0 8.57812 0.234375 8.8125 0.539062 8.8125H9.9375C10.2422 8.8125 10.5 8.57812 10.5 8.27344C10.5 7.94531 10.2422 7.6875 9.9375 7.6875ZM9.9375 0.1875H0.539062C0.234375 0.1875 0 0.445312 0 0.75C0 1.03125 0.234375 1.3125 0.539062 1.3125H9.9375C10.2422 1.3125 10.5 1.07812 10.5 0.773438C10.5 0.492188 10.2422 0.1875 9.9375 0.1875ZM9.9375 3.9375H0.539062C0.234375 3.9375 0 4.19531 0 4.5C0 4.82812 0.234375 5.0625 0.539062 5.0625H9.9375C10.2422 5.0625 10.5 4.82812 10.5 4.5C10.5 4.19531 10.2422 3.9375 9.9375 3.9375Z" fill="white"/>
</svg>
